<?xml version="1.0" encoding="UTF-8"?>
<svg width="49px" height="12px" viewBox="0 0 49 12" version="1.1" xmlns="http://www.w3.org/2000/svg" xmlns:xlink="http://www.w3.org/1999/xlink">
    <!-- Generator: Sketch 59.1 (86144) - https://sketch.com -->
    <title>Group 5</title>
    <desc>Created with Sketch.</desc>
    <g id="Page-1" stroke="none" stroke-width="1" fill="none" fill-rule="evenodd" stroke-linecap="square">
        <g id="Desktop-HD-Copy-4" transform="translate(-668.000000, -5649.000000)" stroke="#007AFF">
            <g id="Group-5" transform="translate(668.000000, 5650.000000)">
                <g id="Group-4">
                    <g id="Group-2">
                        <line x1="0.275" y1="4.72222222" x2="5.225" y2="0.277777778" id="Line"></line>
                        <line x1="5.775" y1="4.72222222" x2="10.725" y2="0.277777778" id="Line" transform="translate(8.250000, 2.500000) scale(-1, 1) translate(-8.250000, -2.500000) "></line>
                    </g>
                    <g id="Group-2" transform="translate(13.000000, 0.000000)">
                        <line x1="0.275" y1="4.72222222" x2="5.225" y2="0.277777778" id="Line"></line>
                        <line x1="5.775" y1="4.72222222" x2="10.725" y2="0.277777778" id="Line" transform="translate(8.250000, 2.500000) scale(-1, 1) translate(-8.250000, -2.500000) "></line>
                    </g>
                    <g id="Group-2" transform="translate(25.000000, 0.000000)">
                        <line x1="0.275" y1="4.72222222" x2="5.225" y2="0.277777778" id="Line"></line>
                        <line x1="5.775" y1="4.72222222" x2="10.725" y2="0.277777778" id="Line" transform="translate(8.250000, 2.500000) scale(-1, 1) translate(-8.250000, -2.500000) "></line>
                    </g>
                    <g id="Group-2" transform="translate(38.000000, 0.000000)">
                        <line x1="0.275" y1="4.72222222" x2="5.225" y2="0.277777778" id="Line"></line>
                        <line x1="5.775" y1="4.72222222" x2="10.725" y2="0.277777778" id="Line" transform="translate(8.250000, 2.500000) scale(-1, 1) translate(-8.250000, -2.500000) "></line>
                    </g>
                </g>
                <g id="Group-4" transform="translate(24.500000, 7.500000) scale(1, -1) translate(-24.500000, -7.500000) translate(0.000000, 5.000000)">
                    <g id="Group-2">
                        <line x1="0.275" y1="4.72222222" x2="5.225" y2="0.277777778" id="Line"></line>
                        <line x1="5.775" y1="4.72222222" x2="10.725" y2="0.277777778" id="Line" transform="translate(8.250000, 2.500000) scale(-1, 1) translate(-8.250000, -2.500000) "></line>
                    </g>
                    <g id="Group-2" transform="translate(13.000000, 0.000000)">
                        <line x1="0.275" y1="4.72222222" x2="5.225" y2="0.277777778" id="Line"></line>
                        <line x1="5.775" y1="4.72222222" x2="10.725" y2="0.277777778" id="Line" transform="translate(8.250000, 2.500000) scale(-1, 1) translate(-8.250000, -2.500000) "></line>
                    </g>
                    <g id="Group-2" transform="translate(25.000000, 0.000000)">
                        <line x1="0.275" y1="4.72222222" x2="5.225" y2="0.277777778" id="Line"></line>
                        <line x1="5.775" y1="4.72222222" x2="10.725" y2="0.277777778" id="Line" transform="translate(8.250000, 2.500000) scale(-1, 1) translate(-8.250000, -2.500000) "></line>
                    </g>
                    <g id="Group-2" transform="translate(38.000000, 0.000000)">
                        <line x1="0.275" y1="4.72222222" x2="5.225" y2="0.277777778" id="Line"></line>
                        <line x1="5.775" y1="4.72222222" x2="10.725" y2="0.277777778" id="Line" transform="translate(8.250000, 2.500000) scale(-1, 1) translate(-8.250000, -2.500000) "></line>
                    </g>
                </g>
            </g>
        </g>
    </g>
</svg>